<svg xmlns="http://www.w3.org/2000/svg" width="19.834" height="35.994" viewBox="0 0 19.834 35.994">
  <path id="Icon_simple-netflix" data-name="Icon simple-netflix" d="M8.085.006,15.21,20.2v-.01l.564,1.59C18.906,30.638,20.589,35.388,20.6,35.4s.48.03,1.053.06c1.734.075,3.885.27,5.514.465a3.966,3.966,0,0,0,.72.045L20.82,15.929l-.654-1.845L16.531,3.809C15.841,1.859,15.256.2,15.226.134L15.18,0H8.092ZM20.847.018l-.015,7.959-.012,7.959-.656-1.848v0L19.317,31.8c.833,2.35,1.278,3.6,1.282,3.611s.48.036,1.053.063c1.736.075,3.885.27,5.52.465a3.97,3.97,0,0,0,.72.045c.019-.015.03-8.13.025-18.015L27.906.015H20.847ZM8.085,0V17.988c0,9.891.01,17.992.023,18s.624-.045,1.361-.129,1.755-.195,2.265-.24c.777-.075,3.1-.225,3.372-.225.078,0,.084-.4.094-7.62l.012-7.62.57,1.59.195.564.855-17.7-.285-.819L15.226.133,15.181,0h-7.1Z" transform="translate(-8.085)" fill="rgba(0,0,0,0.63)"/>
</svg>
