<svg xmlns="http://www.w3.org/2000/svg" xmlns:xlink="http://www.w3.org/1999/xlink" width="110.798" height="140" viewBox="0 0 110.798 140">
  <defs>
    <filter id="Icon_awesome-hand-point-up" x="2.798" y="0" width="108" height="140" filterUnits="userSpaceOnUse">
      <feOffset dx="2" dy="3" input="SourceAlpha"/>
      <feGaussianBlur stdDeviation="2.5" result="blur"/>
      <feFlood flood-opacity="0.796"/>
      <feComposite operator="in" in2="blur"/>
      <feComposite in="SourceGraphic"/>
    </filter>
    <filter id="Icon_awesome-long-arrow-alt-down" x="0" y="73.101" width="40.244" height="66.899" filterUnits="userSpaceOnUse">
      <feOffset dx="2" dy="3" input="SourceAlpha"/>
      <feGaussianBlur stdDeviation="2.5" result="blur-2"/>
      <feFlood flood-opacity="0.796"/>
      <feComposite operator="in" in2="blur-2"/>
      <feComposite in="SourceGraphic"/>
    </filter>
  </defs>
  <g id="Component_28_1" data-name="Component 28 – 1" transform="translate(7.546 6.5)">
    <g transform="matrix(1, 0, 0, 1, -7.55, -6.5)" filter="url(#Icon_awesome-hand-point-up)">
      <path id="Icon_awesome-hand-point-up-2" data-name="Icon awesome-hand-point-up" d="M31.44,0C36.916,0,41.6,4.88,41.6,10.588v23.6c3.951-3.862,11.534-4.336,16.443,1.489,5.291-3.377,12.288-.507,14.443,3.888C83.873,37.441,89,44.748,89,56.719c0,.649-.047,3.137-.045,3.781.039,14.645-7.2,18.172-8.88,29.241a5.59,5.59,0,0,1-5.494,4.79H34.826A11.116,11.116,0,0,1,24.664,87.8C21.652,80.977,13.3,65.255,6.743,62.391,2.526,60.548,0,57.337,0,52.938A11.153,11.153,0,0,1,15.507,42.511a31.344,31.344,0,0,1,5.775,3.345V10.588C21.283,5.046,26.044,0,31.44,0Zm.081,98.313h44.5a5.618,5.618,0,0,1,5.562,5.672v11.344A5.618,5.618,0,0,1,76.021,121h-44.5a5.618,5.618,0,0,1-5.562-5.672V103.984A5.618,5.618,0,0,1,31.521,98.313Zm38.937,6.617a4.727,4.727,0,1,0,4.635,4.727A4.682,4.682,0,0,0,70.458,104.93Z" transform="translate(10.3 6.5)" fill="none" stroke="#db4646" stroke-width="4"/>
    </g>
    <g transform="matrix(1, 0, 0, 1, -7.55, -6.5)" filter="url(#Icon_awesome-long-arrow-alt-down)">
      <path id="Icon_awesome-long-arrow-alt-down-2" data-name="Icon awesome-long-arrow-alt-down" d="M15.676,35.816V3.533A1.223,1.223,0,0,0,14.523,2.25H9.145A1.223,1.223,0,0,0,7.992,3.533V35.816H3.568c-2.054,0-3.082,2.764-1.63,4.38L10.2,49.4a2.143,2.143,0,0,0,3.26,0l8.266-9.2c1.452-1.616.424-4.38-1.63-4.38H15.676Z" transform="translate(29.96 129.75) rotate(180)" fill="none" stroke="#db4646" stroke-width="4"/>
    </g>
  </g>
</svg>
